<mxfile host="app.diagrams.net" agent="Mozilla/5.0 (Windows NT 10.0; Win64; x64) AppleWebKit/537.36 (KHTML, like Gecko) Chrome/139.0.0.0 Safari/537.36" version="28.1.0">
  <diagram name="Trang-1" id="oIlgmjCDEDwOeixc-H01">
    <mxGraphModel dx="780" dy="751" grid="1" gridSize="10" guides="1" tooltips="1" connect="1" arrows="1" fold="1" page="1" pageScale="1" pageWidth="827" pageHeight="1169" math="0" shadow="0">
      <root>
        <mxCell id="0" />
        <mxCell id="1" parent="0" />
        <mxCell id="CWIWUrZtH08wRMtY9Yrg-1" value="Người dùng chưa đăng nhập" style="shape=umlActor;verticalLabelPosition=bottom;verticalAlign=top;html=1;outlineConnect=0;" vertex="1" parent="1">
          <mxGeometry x="1340" y="600" width="30" height="60" as="geometry" />
        </mxCell>
        <mxCell id="CWIWUrZtH08wRMtY9Yrg-2" value="Xem chi tiết sản phẩm" style="ellipse;whiteSpace=wrap;html=1;" vertex="1" parent="1">
          <mxGeometry x="1210" y="300" width="160" height="40" as="geometry" />
        </mxCell>
        <mxCell id="CWIWUrZtH08wRMtY9Yrg-3" value="Tìm kiếm sản phẩm" style="ellipse;whiteSpace=wrap;html=1;" vertex="1" parent="1">
          <mxGeometry x="1050" y="280" width="160" height="40" as="geometry" />
        </mxCell>
        <mxCell id="CWIWUrZtH08wRMtY9Yrg-4" value="Xem danh mục sản phẩm" style="ellipse;whiteSpace=wrap;html=1;" vertex="1" parent="1">
          <mxGeometry x="890" y="300" width="160" height="40" as="geometry" />
        </mxCell>
        <mxCell id="CWIWUrZtH08wRMtY9Yrg-5" style="edgeStyle=orthogonalEdgeStyle;rounded=0;orthogonalLoop=1;jettySize=auto;html=1;exitX=0.5;exitY=1;exitDx=0;exitDy=0;" edge="1" parent="1">
          <mxGeometry relative="1" as="geometry">
            <mxPoint x="1130" y="240" as="sourcePoint" />
            <mxPoint x="1130" y="240" as="targetPoint" />
          </mxGeometry>
        </mxCell>
        <mxCell id="CWIWUrZtH08wRMtY9Yrg-6" value="Đăng ký" style="ellipse;whiteSpace=wrap;html=1;" vertex="1" parent="1">
          <mxGeometry x="1080" y="510" width="160" height="40" as="geometry" />
        </mxCell>
        <mxCell id="CWIWUrZtH08wRMtY9Yrg-7" value="Viết đánh giá&amp;nbsp;" style="ellipse;whiteSpace=wrap;html=1;" vertex="1" parent="1">
          <mxGeometry x="1040" y="800" width="120" height="40" as="geometry" />
        </mxCell>
        <mxCell id="CWIWUrZtH08wRMtY9Yrg-8" value="Xem đánh giá" style="ellipse;whiteSpace=wrap;html=1;" vertex="1" parent="1">
          <mxGeometry x="1170" y="800" width="120" height="40" as="geometry" />
        </mxCell>
        <mxCell id="CWIWUrZtH08wRMtY9Yrg-9" value="" style="endArrow=none;html=1;rounded=0;exitX=0.832;exitY=0.077;exitDx=0;exitDy=0;exitPerimeter=0;" edge="1" parent="1" source="CWIWUrZtH08wRMtY9Yrg-8" target="CWIWUrZtH08wRMtY9Yrg-1">
          <mxGeometry width="50" height="50" relative="1" as="geometry">
            <mxPoint x="1710" y="40" as="sourcePoint" />
            <mxPoint x="1760" y="-10" as="targetPoint" />
            <Array as="points">
              <mxPoint x="1270" y="660" />
            </Array>
          </mxGeometry>
        </mxCell>
        <mxCell id="CWIWUrZtH08wRMtY9Yrg-10" value="" style="endArrow=none;html=1;rounded=0;exitX=0.925;exitY=0.725;exitDx=0;exitDy=0;exitPerimeter=0;" edge="1" parent="1" source="CWIWUrZtH08wRMtY9Yrg-6" target="CWIWUrZtH08wRMtY9Yrg-1">
          <mxGeometry width="50" height="50" relative="1" as="geometry">
            <mxPoint x="1440" y="240" as="sourcePoint" />
            <mxPoint x="1490" y="190" as="targetPoint" />
            <Array as="points" />
          </mxGeometry>
        </mxCell>
        <mxCell id="CWIWUrZtH08wRMtY9Yrg-11" value="Người dùng đã đăng nhập" style="shape=umlActor;verticalLabelPosition=bottom;verticalAlign=top;html=1;outlineConnect=0;" vertex="1" parent="1">
          <mxGeometry x="890" y="570" width="30" height="60" as="geometry" />
        </mxCell>
        <mxCell id="CWIWUrZtH08wRMtY9Yrg-12" value="Đăng xuất" style="ellipse;whiteSpace=wrap;html=1;" vertex="1" parent="1">
          <mxGeometry x="1060" y="620" width="160" height="40" as="geometry" />
        </mxCell>
        <mxCell id="CWIWUrZtH08wRMtY9Yrg-13" value="Đăng nhập" style="ellipse;whiteSpace=wrap;html=1;" vertex="1" parent="1">
          <mxGeometry x="1070" y="565" width="160" height="40" as="geometry" />
        </mxCell>
        <mxCell id="CWIWUrZtH08wRMtY9Yrg-14" value="" style="endArrow=none;html=1;rounded=0;exitX=1;exitY=0.5;exitDx=0;exitDy=0;" edge="1" parent="1" source="CWIWUrZtH08wRMtY9Yrg-13" target="CWIWUrZtH08wRMtY9Yrg-1">
          <mxGeometry width="50" height="50" relative="1" as="geometry">
            <mxPoint x="1370" y="350" as="sourcePoint" />
            <mxPoint x="1420" y="300" as="targetPoint" />
            <Array as="points" />
          </mxGeometry>
        </mxCell>
        <mxCell id="CWIWUrZtH08wRMtY9Yrg-15" value="" style="endArrow=none;html=1;rounded=0;entryX=0;entryY=0.5;entryDx=0;entryDy=0;" edge="1" parent="1" target="CWIWUrZtH08wRMtY9Yrg-12">
          <mxGeometry width="50" height="50" relative="1" as="geometry">
            <mxPoint x="920" y="600" as="sourcePoint" />
            <mxPoint x="1050" y="520" as="targetPoint" />
          </mxGeometry>
        </mxCell>
        <mxCell id="CWIWUrZtH08wRMtY9Yrg-16" value="Thêm sản phẩm vào giỏ hàng" style="ellipse;whiteSpace=wrap;html=1;" vertex="1" parent="1">
          <mxGeometry x="640" y="540" width="130" height="50" as="geometry" />
        </mxCell>
        <mxCell id="CWIWUrZtH08wRMtY9Yrg-17" value="Cập nhật số lượng sản phẩm trong giỏ hàng" style="ellipse;whiteSpace=wrap;html=1;" vertex="1" parent="1">
          <mxGeometry x="360" y="560" width="142.5" height="60" as="geometry" />
        </mxCell>
        <mxCell id="CWIWUrZtH08wRMtY9Yrg-18" value="Xóa sản phẩm khỏi giỏ hàng" style="ellipse;whiteSpace=wrap;html=1;" vertex="1" parent="1">
          <mxGeometry x="370" y="630" width="150" height="50" as="geometry" />
        </mxCell>
        <mxCell id="CWIWUrZtH08wRMtY9Yrg-19" value="Đặt hàng" style="ellipse;whiteSpace=wrap;html=1;" vertex="1" parent="1">
          <mxGeometry x="410" y="697.5" width="120" height="40" as="geometry" />
        </mxCell>
        <mxCell id="CWIWUrZtH08wRMtY9Yrg-20" value="Thanh toán" style="ellipse;whiteSpace=wrap;html=1;" vertex="1" parent="1">
          <mxGeometry x="502.5" y="770" width="122.5" height="40" as="geometry" />
        </mxCell>
        <mxCell id="CWIWUrZtH08wRMtY9Yrg-21" value="Xem thông tin tài khoản" style="ellipse;whiteSpace=wrap;html=1;" vertex="1" parent="1">
          <mxGeometry x="547.5" y="220" width="132.5" height="50" as="geometry" />
        </mxCell>
        <mxCell id="CWIWUrZtH08wRMtY9Yrg-22" value="Cập nhật thông tin tài khoản" style="ellipse;whiteSpace=wrap;html=1;" vertex="1" parent="1">
          <mxGeometry x="500" y="280" width="132.5" height="50" as="geometry" />
        </mxCell>
        <mxCell id="CWIWUrZtH08wRMtY9Yrg-23" value="Xem lịch sử đơn hàng" style="ellipse;whiteSpace=wrap;html=1;" vertex="1" parent="1">
          <mxGeometry x="460" y="340" width="125" height="50" as="geometry" />
        </mxCell>
        <mxCell id="CWIWUrZtH08wRMtY9Yrg-24" value="Xem giỏ hàng" style="ellipse;whiteSpace=wrap;html=1;" vertex="1" parent="1">
          <mxGeometry x="620" y="610" width="140" height="40" as="geometry" />
        </mxCell>
        <mxCell id="CWIWUrZtH08wRMtY9Yrg-25" value="" style="endArrow=none;html=1;rounded=0;exitX=1;exitY=0.5;exitDx=0;exitDy=0;entryX=0;entryY=1;entryDx=0;entryDy=0;entryPerimeter=0;" edge="1" parent="1" source="CWIWUrZtH08wRMtY9Yrg-24" target="CWIWUrZtH08wRMtY9Yrg-11">
          <mxGeometry width="50" height="50" relative="1" as="geometry">
            <mxPoint x="730" y="509" as="sourcePoint" />
            <mxPoint x="850" y="420" as="targetPoint" />
          </mxGeometry>
        </mxCell>
        <mxCell id="CWIWUrZtH08wRMtY9Yrg-26" value="&amp;lt;&amp;lt;extend&amp;gt;&amp;gt;" style="html=1;verticalAlign=bottom;labelBackgroundColor=none;endArrow=open;endFill=0;dashed=1;rounded=0;exitX=0.98;exitY=0.636;exitDx=0;exitDy=0;entryX=0.022;entryY=0.507;entryDx=0;entryDy=0;entryPerimeter=0;exitPerimeter=0;" edge="1" parent="1" source="CWIWUrZtH08wRMtY9Yrg-17" target="CWIWUrZtH08wRMtY9Yrg-24">
          <mxGeometry x="-0.0374" y="4" width="160" relative="1" as="geometry">
            <mxPoint x="788" y="775" as="sourcePoint" />
            <mxPoint x="550" y="630" as="targetPoint" />
            <mxPoint as="offset" />
          </mxGeometry>
        </mxCell>
        <mxCell id="CWIWUrZtH08wRMtY9Yrg-27" value="&amp;lt;&amp;lt;extend&amp;gt;&amp;gt;" style="html=1;verticalAlign=bottom;labelBackgroundColor=none;endArrow=open;endFill=0;dashed=1;rounded=0;exitX=0.982;exitY=0.45;exitDx=0;exitDy=0;entryX=0.12;entryY=0.84;entryDx=0;entryDy=0;entryPerimeter=0;exitPerimeter=0;" edge="1" parent="1" source="CWIWUrZtH08wRMtY9Yrg-18" target="CWIWUrZtH08wRMtY9Yrg-24">
          <mxGeometry x="-0.455" y="4" width="160" relative="1" as="geometry">
            <mxPoint x="858" y="815" as="sourcePoint" />
            <mxPoint x="620" y="670" as="targetPoint" />
            <mxPoint as="offset" />
          </mxGeometry>
        </mxCell>
        <mxCell id="CWIWUrZtH08wRMtY9Yrg-28" value="&amp;lt;&amp;lt;extend&amp;gt;&amp;gt;" style="html=1;verticalAlign=bottom;labelBackgroundColor=none;endArrow=open;endFill=0;dashed=1;rounded=0;exitX=1.013;exitY=0.415;exitDx=0;exitDy=0;entryX=0.228;entryY=0.933;entryDx=0;entryDy=0;entryPerimeter=0;exitPerimeter=0;" edge="1" parent="1" source="CWIWUrZtH08wRMtY9Yrg-19" target="CWIWUrZtH08wRMtY9Yrg-24">
          <mxGeometry x="-0.4334" y="10" width="160" relative="1" as="geometry">
            <mxPoint x="848" y="875" as="sourcePoint" />
            <mxPoint x="610" y="730" as="targetPoint" />
            <mxPoint as="offset" />
          </mxGeometry>
        </mxCell>
        <mxCell id="CWIWUrZtH08wRMtY9Yrg-30" value="&lt;span style=&quot;text-wrap-mode: nowrap;&quot;&gt;Chức năng cơ bản&lt;/span&gt;" style="ellipse;whiteSpace=wrap;html=1;" vertex="1" parent="1">
          <mxGeometry x="1100" y="450" width="140" height="40" as="geometry" />
        </mxCell>
        <mxCell id="CWIWUrZtH08wRMtY9Yrg-31" value="" style="endArrow=none;html=1;rounded=0;entryX=0.092;entryY=0.8;entryDx=0;entryDy=0;entryPerimeter=0;" edge="1" parent="1" source="CWIWUrZtH08wRMtY9Yrg-11" target="CWIWUrZtH08wRMtY9Yrg-30">
          <mxGeometry width="50" height="50" relative="1" as="geometry">
            <mxPoint x="990" y="533" as="sourcePoint" />
            <mxPoint x="1110" y="480" as="targetPoint" />
          </mxGeometry>
        </mxCell>
        <mxCell id="CWIWUrZtH08wRMtY9Yrg-32" value="" style="endArrow=none;html=1;rounded=0;exitX=1;exitY=1;exitDx=0;exitDy=0;entryX=0.25;entryY=0.1;entryDx=0;entryDy=0;entryPerimeter=0;" edge="1" parent="1" source="CWIWUrZtH08wRMtY9Yrg-30" target="CWIWUrZtH08wRMtY9Yrg-1">
          <mxGeometry width="50" height="50" relative="1" as="geometry">
            <mxPoint x="1310" y="350" as="sourcePoint" />
            <mxPoint x="1466" y="537" as="targetPoint" />
            <Array as="points" />
          </mxGeometry>
        </mxCell>
        <mxCell id="CWIWUrZtH08wRMtY9Yrg-33" value="&amp;lt;&amp;lt;extend&amp;gt;&amp;gt;" style="html=1;verticalAlign=bottom;labelBackgroundColor=none;endArrow=open;endFill=0;dashed=1;rounded=0;exitX=0.5;exitY=1;exitDx=0;exitDy=0;entryX=0.632;entryY=0.058;entryDx=0;entryDy=0;entryPerimeter=0;" edge="1" parent="1" source="CWIWUrZtH08wRMtY9Yrg-2" target="CWIWUrZtH08wRMtY9Yrg-30">
          <mxGeometry x="0.1128" y="26" width="160" relative="1" as="geometry">
            <mxPoint x="1170" y="210" as="sourcePoint" />
            <mxPoint x="1281" y="330" as="targetPoint" />
            <mxPoint as="offset" />
          </mxGeometry>
        </mxCell>
        <mxCell id="CWIWUrZtH08wRMtY9Yrg-34" value="&amp;lt;&amp;lt;extend&amp;gt;&amp;gt;" style="html=1;verticalAlign=bottom;labelBackgroundColor=none;endArrow=open;endFill=0;dashed=1;rounded=0;exitX=0.613;exitY=0.933;exitDx=0;exitDy=0;exitPerimeter=0;" edge="1" parent="1" source="CWIWUrZtH08wRMtY9Yrg-3" target="CWIWUrZtH08wRMtY9Yrg-30">
          <mxGeometry x="-0.1566" y="-32" width="160" relative="1" as="geometry">
            <mxPoint x="1340" y="200" as="sourcePoint" />
            <mxPoint x="1451" y="320" as="targetPoint" />
            <mxPoint as="offset" />
          </mxGeometry>
        </mxCell>
        <mxCell id="CWIWUrZtH08wRMtY9Yrg-35" value="&amp;lt;&amp;lt;extend&amp;gt;&amp;gt;" style="html=1;verticalAlign=bottom;labelBackgroundColor=none;endArrow=open;endFill=0;dashed=1;rounded=0;exitX=0.5;exitY=1;exitDx=0;exitDy=0;entryX=0.203;entryY=0.121;entryDx=0;entryDy=0;entryPerimeter=0;" edge="1" parent="1" source="CWIWUrZtH08wRMtY9Yrg-4" target="CWIWUrZtH08wRMtY9Yrg-30">
          <mxGeometry x="-0.3847" y="-31" width="160" relative="1" as="geometry">
            <mxPoint x="1090" y="270" as="sourcePoint" />
            <mxPoint x="1201" y="390" as="targetPoint" />
            <mxPoint as="offset" />
          </mxGeometry>
        </mxCell>
        <mxCell id="CWIWUrZtH08wRMtY9Yrg-36" value="&lt;span style=&quot;text-wrap-mode: nowrap;&quot;&gt;Tương tác&lt;/span&gt;" style="ellipse;whiteSpace=wrap;html=1;" vertex="1" parent="1">
          <mxGeometry x="1105" y="687.5" width="90" height="50" as="geometry" />
        </mxCell>
        <mxCell id="CWIWUrZtH08wRMtY9Yrg-37" value="" style="endArrow=none;html=1;rounded=0;" edge="1" parent="1" source="CWIWUrZtH08wRMtY9Yrg-11" target="CWIWUrZtH08wRMtY9Yrg-36">
          <mxGeometry width="50" height="50" relative="1" as="geometry">
            <mxPoint x="920" y="463" as="sourcePoint" />
            <mxPoint x="930" y="70" as="targetPoint" />
            <Array as="points" />
          </mxGeometry>
        </mxCell>
        <mxCell id="CWIWUrZtH08wRMtY9Yrg-38" value="&amp;lt;&amp;lt;extend&amp;gt;&amp;gt;" style="html=1;verticalAlign=bottom;labelBackgroundColor=none;endArrow=open;endFill=0;dashed=1;rounded=0;entryX=0.711;entryY=0.967;entryDx=0;entryDy=0;entryPerimeter=0;" edge="1" parent="1" source="CWIWUrZtH08wRMtY9Yrg-8" target="CWIWUrZtH08wRMtY9Yrg-36">
          <mxGeometry x="-0.4126" y="-24" width="160" relative="1" as="geometry">
            <mxPoint x="1304" y="787.5" as="sourcePoint" />
            <mxPoint x="1235" y="988.5" as="targetPoint" />
            <mxPoint as="offset" />
          </mxGeometry>
        </mxCell>
        <mxCell id="CWIWUrZtH08wRMtY9Yrg-39" value="&amp;lt;&amp;lt;extend&amp;gt;&amp;gt;" style="html=1;verticalAlign=bottom;labelBackgroundColor=none;endArrow=open;endFill=0;dashed=1;rounded=0;exitX=0.717;exitY=0.05;exitDx=0;exitDy=0;exitPerimeter=0;" edge="1" parent="1" source="CWIWUrZtH08wRMtY9Yrg-7" target="CWIWUrZtH08wRMtY9Yrg-36">
          <mxGeometry x="-0.3824" y="29" width="160" relative="1" as="geometry">
            <mxPoint x="1059" y="757.5" as="sourcePoint" />
            <mxPoint x="995" y="802.5" as="targetPoint" />
            <mxPoint as="offset" />
          </mxGeometry>
        </mxCell>
        <mxCell id="CWIWUrZtH08wRMtY9Yrg-40" value="&lt;span style=&quot;text-wrap-mode: nowrap;&quot;&gt;Quản lý tài khoản&lt;/span&gt;" style="ellipse;whiteSpace=wrap;html=1;" vertex="1" parent="1">
          <mxGeometry x="670" y="470" width="130" height="50" as="geometry" />
        </mxCell>
        <mxCell id="CWIWUrZtH08wRMtY9Yrg-41" value="" style="endArrow=none;html=1;rounded=0;entryX=0;entryY=0.3333333333333333;entryDx=0;entryDy=0;exitX=1;exitY=1;exitDx=0;exitDy=0;entryPerimeter=0;" edge="1" parent="1" source="CWIWUrZtH08wRMtY9Yrg-40" target="CWIWUrZtH08wRMtY9Yrg-11">
          <mxGeometry width="50" height="50" relative="1" as="geometry">
            <mxPoint x="800" y="240" as="sourcePoint" />
            <mxPoint x="985" y="240" as="targetPoint" />
          </mxGeometry>
        </mxCell>
        <mxCell id="CWIWUrZtH08wRMtY9Yrg-42" value="&amp;lt;&amp;lt;extend&amp;gt;&amp;gt;" style="html=1;verticalAlign=bottom;labelBackgroundColor=none;endArrow=open;endFill=0;dashed=1;rounded=0;exitX=0.955;exitY=0.82;exitDx=0;exitDy=0;exitPerimeter=0;entryX=0.5;entryY=0;entryDx=0;entryDy=0;" edge="1" parent="1" source="CWIWUrZtH08wRMtY9Yrg-21" target="CWIWUrZtH08wRMtY9Yrg-40">
          <mxGeometry x="0.2063" y="25" width="160" relative="1" as="geometry">
            <mxPoint x="780" y="280" as="sourcePoint" />
            <mxPoint x="860" y="426" as="targetPoint" />
            <mxPoint as="offset" />
          </mxGeometry>
        </mxCell>
        <mxCell id="CWIWUrZtH08wRMtY9Yrg-43" value="&amp;lt;&amp;lt;extend&amp;gt;&amp;gt;" style="html=1;verticalAlign=bottom;labelBackgroundColor=none;endArrow=open;endFill=0;dashed=1;rounded=0;entryX=0.273;entryY=0;entryDx=0;entryDy=0;entryPerimeter=0;" edge="1" parent="1" source="CWIWUrZtH08wRMtY9Yrg-22" target="CWIWUrZtH08wRMtY9Yrg-40">
          <mxGeometry x="0.1727" y="18" width="160" relative="1" as="geometry">
            <mxPoint x="630" y="360" as="sourcePoint" />
            <mxPoint x="710" y="506" as="targetPoint" />
            <mxPoint as="offset" />
          </mxGeometry>
        </mxCell>
        <mxCell id="CWIWUrZtH08wRMtY9Yrg-44" value="&amp;lt;&amp;lt;extend&amp;gt;&amp;gt;" style="html=1;verticalAlign=bottom;labelBackgroundColor=none;endArrow=open;endFill=0;dashed=1;rounded=0;exitX=0.608;exitY=1;exitDx=0;exitDy=0;exitPerimeter=0;" edge="1" parent="1" source="CWIWUrZtH08wRMtY9Yrg-23" target="CWIWUrZtH08wRMtY9Yrg-40">
          <mxGeometry x="0.0806" y="-27" width="160" relative="1" as="geometry">
            <mxPoint x="550" y="470" as="sourcePoint" />
            <mxPoint x="630" y="616" as="targetPoint" />
            <mxPoint as="offset" />
          </mxGeometry>
        </mxCell>
        <mxCell id="CWIWUrZtH08wRMtY9Yrg-45" value="Xoá giỏ hàng" style="ellipse;whiteSpace=wrap;html=1;" vertex="1" parent="1">
          <mxGeometry x="390" y="510" width="110" height="40" as="geometry" />
        </mxCell>
        <mxCell id="CWIWUrZtH08wRMtY9Yrg-46" value="&amp;lt;&amp;lt;extend&amp;gt;&amp;gt;" style="html=1;verticalAlign=bottom;labelBackgroundColor=none;endArrow=open;endFill=0;dashed=1;rounded=0;exitX=0.974;exitY=0.704;exitDx=0;exitDy=0;exitPerimeter=0;entryX=0.129;entryY=0.288;entryDx=0;entryDy=0;entryPerimeter=0;" edge="1" parent="1" source="CWIWUrZtH08wRMtY9Yrg-45" target="CWIWUrZtH08wRMtY9Yrg-24">
          <mxGeometry x="0.0966" y="12" width="160" relative="1" as="geometry">
            <mxPoint x="670" y="540" as="sourcePoint" />
            <mxPoint x="803" y="632" as="targetPoint" />
            <mxPoint as="offset" />
          </mxGeometry>
        </mxCell>
        <mxCell id="CWIWUrZtH08wRMtY9Yrg-47" value="" style="endArrow=none;html=1;rounded=0;exitX=0.991;exitY=0.73;exitDx=0;exitDy=0;exitPerimeter=0;" edge="1" parent="1" source="CWIWUrZtH08wRMtY9Yrg-16" target="CWIWUrZtH08wRMtY9Yrg-11">
          <mxGeometry width="50" height="50" relative="1" as="geometry">
            <mxPoint x="730" y="550" as="sourcePoint" />
            <mxPoint x="890" y="550" as="targetPoint" />
          </mxGeometry>
        </mxCell>
        <mxCell id="CWIWUrZtH08wRMtY9Yrg-48" value="&amp;lt;&amp;lt;include&amp;gt;&amp;gt;" style="html=1;verticalAlign=bottom;labelBackgroundColor=none;endArrow=open;endFill=0;dashed=1;rounded=0;exitX=1;exitY=1;exitDx=0;exitDy=0;entryX=0.249;entryY=0.075;entryDx=0;entryDy=0;entryPerimeter=0;" edge="1" parent="1" source="CWIWUrZtH08wRMtY9Yrg-19" target="CWIWUrZtH08wRMtY9Yrg-20">
          <mxGeometry x="0.4362" y="25" width="160" relative="1" as="geometry">
            <mxPoint x="620" y="760" as="sourcePoint" />
            <mxPoint x="780" y="760" as="targetPoint" />
            <mxPoint as="offset" />
          </mxGeometry>
        </mxCell>
      </root>
    </mxGraphModel>
  </diagram>
</mxfile>
